<?xml version="1.0" encoding="UTF-8" standalone="no"?>
<!-- Created with Inkscape (http://www.inkscape.org/) -->

<svg
   width="20"
   height="20"
   viewBox="0 0 105.01685 92.482216"
   version="1.1"
   id="svg335"
   xmlns="http://www.w3.org/2000/svg"
   xmlns:svg="http://www.w3.org/2000/svg">
  <defs
     id="defs332">
    <clipPath
       clipPathUnits="userSpaceOnUse"
       id="clipPath10237">
      <rect
         style="fill:#000000;fill-opacity:1;stroke:none;stroke-width:1.5833;stroke-linejoin:round;stroke-miterlimit:6.3;stroke-dasharray:1.5833, 1.5833"
         id="rect10239"
         width="262.4104"
         height="262.4104"
         x="-27.642693"
         y="-27.485474" />
    </clipPath>
  </defs>
  <g
     id="layer1"
     transform="translate(-58.739049,-106.20902)">
    <g
       id="g12449"
       transform="translate(18.94998,14.574349)"
       style="fill:#000000">
      <g
         id="Layer%201"
         transform="matrix(0.51134156,0,0,0.51134156,39.341784,84.839828)"
         style="fill:#000000"
         clip-path="url(#clipPath10237)">
		<path
   id="path6484"
   style="fill:#000000"
   d="m 23.87509,13.288269 c -1.749997,0 -4.749585,1.250743 -6.249582,3.500735 -0.749997,0.749999 -1.250748,1.749859 -1.500748,2.749856 -2.499992,8.749974 -4.750467,18.00036 -7.0004607,27.000333 -0.7499976,2.249994 -1.4999887,5.250336 -1.9999872,7.75033 -0.999997,3.999988 -1.9990986,8.499174 -3.249095,12.499162 -0.999997,3.999988 -3.00048614,11.000307 -3.00048614,11.750304 0,7.930176 4.42753354,14.654653 10.66491404,18.510241 3.593791,2.220894 7.790129,3.48962 12.084814,3.48962 9.99997,0 20.750746,-6.499785 22.75074,-20.749742 v -1.446176 -1.287511 -2.016157 l 7.999949,-61.750995 z m 38.999245,0.05558 -8.248557,62.999093 v 0.712476 3.287498 c 0,0.499998 0.748728,4.501228 1.498727,6.501222 4.749985,10.24997 13.250393,13.748272 21.000371,13.748272 9.499971,0 19.749486,-6.248656 22.249479,-19.498614 V 77.055421 13.343852 Z m 45.126545,0 v 63.711569 2.286999 c 0,0.499998 0.24886,3.500479 0.74886,5.000474 3.49999,11.749966 13.24926,16.249519 21.74923,16.249519 10.74997,0 21.75112,-7.998893 22.50112,-21.998851 L 152.801,77.055421 144.49989,13.343852 Z m 45.24883,0.03032 v 1.500748 c 0,0.499998 3.49946,25.750046 4.99946,38.500007 0.99998,7.249979 2.2515,14.999753 3.0015,22.749729 0.0469,0.305 0.0884,0.617567 0.1243,0.930767 0.3452,3.023391 0.26617,6.399738 1.62505,9.570429 4.5,10.24997 13.00078,13.998901 20.75075,13.998901 4.34338,0 8.68798,-1.304855 12.38396,-3.654348 5.87709,-3.736089 10.11514,-10.114917 10.11514,-18.095893 0,-3.749988 -12.49928,-48.249543 -13.74928,-54.749524 -0.75,-3.999988 -3.25047,-10.750816 -9.00045,-10.750816 z M 103.52087,93.094733 C 97.661981,103.7017 87.267926,108.84299 76.875257,108.84299 c -11.276567,0 -21.192781,-6.34638 -26.469766,-15.527945 -6.005582,10.795865 -17.000359,15.474385 -26.781032,15.474385 -4.073987,0 -8.183926,-0.68423 -12.084814,-2.27993 l 0.003,74.11272 c 0,7.44037 6.086569,13.52796 13.526948,13.52796 H 182.60374 c 7.44087,0 13.52897,-6.08759 13.52897,-13.52796 l 0.003,-74.40175 c -3.84258,1.71368 -8.05268,2.65486 -12.38598,2.65486 -9.25027,0 -19.92696,-4.27758 -26.51524,-15.585551 -5.33269,9.459571 -15.67457,15.553211 -26.73454,15.553211 -9.16957,0 -20.86004,-4.41399 -26.97911,-15.748257 z m 48.73137,27.294417 c 28.3246,0 42.50497,34.2434 22.47889,54.26949 -20.02609,20.02608 -54.26949,5.84571 -54.26949,-22.47889 0,-17.5576 14.233,-31.7906 31.7906,-31.7906 z m -0.10611,14.37283 c -0.90958,-0.008 -1.82432,0.58048 -1.8959,1.77058 l -0.0414,13.52088 -3.87567,-3.83929 c -1.78779,-1.62617 -4.29008,0.93592 -2.62252,2.68518 l 7.03684,6.94892 c 0.73262,0.7192 1.90607,0.7192 2.63869,0 l 7.14093,-7.052 c 1.79694,-1.7557 -0.84772,-4.44702 -2.63464,-2.68114 h -0.0101 l -3.91104,3.86557 0.0414,-13.4168 c -0.0518,-1.19112 -0.95701,-1.79439 -1.86658,-1.8019 z m 13.1985,19.30053 c -0.97441,-0.009 -1.95519,0.6408 -1.89994,1.96158 v 5.39158 h -22.40511 v -5.35519 c -0.0999,-2.38297 -3.61578,-2.41698 -3.76147,-0.0364 v 7.35822 h 0.0253 c 0.044,0.9989 0.86372,1.78701 1.86356,1.79483 h 26.17669 c 0.99878,-0.01 1.816,-0.79708 1.86254,-1.79483 v -7.32183 c 0.0807,-1.31947 -0.88712,-1.9886 -1.86153,-1.99797 z" />

	</g>
    </g>
  </g>
</svg>
